<svg width="17" height="20" fill="none" xmlns="http://www.w3.org/2000/svg"><g clip-path="url(#clip0_508_5891)"><path d="M8.3 0C3.716 0 0 3.67 0 8.197c0 4.527 3.716 8.197 8.3 8.197l.018 3.085c4.265-2.451 8.32-5.723 8.32-11.282C16.639 3.67 12.885 0 8.3 0z" fill="url(#paint0_linear_508_5891)"/><g filter="url(#filter0_i_508_5891)"><path d="M8.3 0C3.716 0 0 3.67 0 8.197c0 4.527 3.716 8.197 8.3 8.197l.018 3.085c4.265-2.451 8.32-5.723 8.32-11.282C16.639 3.67 12.885 0 8.3 0z" fill="#428B7F"/></g><g filter="url(#filter1_i_508_5891)"><path d="M8.3 0C3.716 0 0 3.67 0 8.197c0 4.527 3.716 8.197 8.3 8.197l.018 3.085c4.265-2.451 8.32-5.723 8.32-11.282C16.639 3.67 12.885 0 8.3 0z" fill="#428B7F"/></g><mask id="a" style="mask-type:alpha" maskUnits="userSpaceOnUse" x="0" y="0" width="17" height="20"><path d="M8.3 0C3.716 0 0 3.67 0 8.197c0 4.527 3.716 8.197 8.3 8.197l.018 3.085c4.265-2.451 8.32-5.723 8.32-11.282C16.639 3.67 12.885 0 8.3 0z" fill="#fff"/></mask><g mask="url(#a)"><path d="M3.791 11.088l7.088 7.414 9.396-6.95-6.79-6.178-1.452 2.517-8.242 3.197z" fill="url(#paint1_linear_508_5891)" fill-opacity=".21"/></g><g filter="url(#filter2_d_508_5891)"><path d="M3.613 8.427v2.252c0 .594.48 1.08 1.069 1.08h5.526c.588 0 1.069-.486 1.069-1.08V9.256l2.188 2.214V8.427H3.613z" fill="#428B7F"/></g><path d="M3.613 8.427v2.252c0 .594.48 1.08 1.069 1.08h5.526c.588 0 1.069-.486 1.069-1.08V9.256l2.188 2.214V8.427H3.613z" fill="#F6F6F6"/><path d="M13.465 8.426V5.374l-2.188 2.21v-1.41c0-.594-.481-1.08-1.069-1.08H4.682c-.588 0-1.069.486-1.069 1.08v2.252h9.852z" fill="#E2E2E2"/></g><defs><filter id="filter0_i_508_5891" x="0" y="0" width="16.639" height="21.479" filterUnits="userSpaceOnUse" color-interpolation-filters="sRGB"><feFlood flood-opacity="0" result="BackgroundImageFix"/><feBlend in="SourceGraphic" in2="BackgroundImageFix" result="shape"/><feColorMatrix in="SourceAlpha" values="0 0 0 0 0 0 0 0 0 0 0 0 0 0 0 0 0 0 127 0" result="hardAlpha"/><feOffset dy="2"/><feGaussianBlur stdDeviation="2"/><feComposite in2="hardAlpha" operator="arithmetic" k2="-1" k3="1"/><feColorMatrix values="0 0 0 0 1 0 0 0 0 1 0 0 0 0 1 0 0 0 0.2 0"/><feBlend in2="shape" result="effect1_innerShadow_508_5891"/></filter><filter id="filter1_i_508_5891" x="0" y="-2" width="16.639" height="21.479" filterUnits="userSpaceOnUse" color-interpolation-filters="sRGB"><feFlood flood-opacity="0" result="BackgroundImageFix"/><feBlend in="SourceGraphic" in2="BackgroundImageFix" result="shape"/><feColorMatrix in="SourceAlpha" values="0 0 0 0 0 0 0 0 0 0 0 0 0 0 0 0 0 0 127 0" result="hardAlpha"/><feOffset dy="-2"/><feGaussianBlur stdDeviation="2"/><feComposite in2="hardAlpha" operator="arithmetic" k2="-1" k3="1"/><feColorMatrix values="0 0 0 0 0 0 0 0 0 0 0 0 0 0 0 0 0 0 0.1 0"/><feBlend in2="shape" result="effect1_innerShadow_508_5891"/></filter><filter id="filter2_d_508_5891" x=".613" y="7.427" width="17.851" height="11.333" filterUnits="userSpaceOnUse" color-interpolation-filters="sRGB"><feFlood flood-opacity="0" result="BackgroundImageFix"/><feColorMatrix in="SourceAlpha" values="0 0 0 0 0 0 0 0 0 0 0 0 0 0 0 0 0 0 127 0" result="hardAlpha"/><feOffset dx="1" dy="3"/><feGaussianBlur stdDeviation="2"/><feColorMatrix values="0 0 0 0 0 0 0 0 0 0 0 0 0 0 0 0 0 0 0.1 0"/><feBlend in2="BackgroundImageFix" result="effect1_dropShadow_508_5891"/><feBlend in="SourceGraphic" in2="effect1_dropShadow_508_5891" result="shape"/></filter><linearGradient id="paint0_linear_508_5891" x1="4.338" y1="13.254" x2="13.739" y2="5.243" gradientUnits="userSpaceOnUse"><stop stop-color="#058D80"/><stop offset="1" stop-color="#058D7F"/></linearGradient><linearGradient id="paint1_linear_508_5891" x1="8.744" y1="8.958" x2="15.239" y2="17.97" gradientUnits="userSpaceOnUse"><stop/><stop offset="1" stop-color="#D8D8D8" stop-opacity="0"/></linearGradient><clipPath id="clip0_508_5891"><path fill="#fff" d="M0 0h16.642v19.536H0z"/></clipPath></defs></svg>