<svg width="72" height="72" fill="none" xmlns="http://www.w3.org/2000/svg"><g clip-path="url(#clip0_508_5803)" stroke-width="2.75" stroke-linecap="round" stroke-linejoin="round"><path d="M21 21a6 6 0 100-12 6 6 0 000 12zm-6 45V51l-3-3V36a3 3 0 013-3h12a3 3 0 013 3v12l-3 3v15" stroke="#20AD96"/><path d="M51 21a6 6 0 100-12 6 6 0 000 12zm-6 45V54h-6l6-18a3 3 0 013-3h6a3 3 0 013 3l6 18h-6v12" stroke="#3F3A64"/></g><defs><clipPath id="clip0_508_5803"><path fill="#fff" d="M0 0h72v72H0z"/></clipPath></defs></svg>